<svg width="112" height="112" viewBox="0 0 112 112" fill="none" xmlns="http://www.w3.org/2000/svg">
<path fill-rule="evenodd" clip-rule="evenodd" d="M44.4376 36.3551C44.5982 35.5942 44.7774 35.1811 45.0069 35.0429C45.1027 34.9852 45.2826 34.9858 45.3971 35.0441C45.6189 35.1569 45.8488 35.4268 46.1469 35.9241C46.5209 36.5482 46.9147 37.4368 47.3491 38.6369C47.3854 38.7375 47.4272 38.8197 47.4418 38.8196C47.4565 38.8196 47.5782 38.7985 47.7123 38.7728C48.826 38.5593 49.9786 38.7614 50.829 39.3192C51.0995 39.4967 51.5303 39.9155 51.6945 40.1605C52.0072 40.6274 52.2062 41.1977 52.2492 41.7506L52.2648 41.951L52.4706 41.9778C53.4267 42.1025 54.3111 42.1882 55.4115 42.2627C56.221 42.3176 56.4315 42.3421 56.6415 42.4062C56.9469 42.4993 57.1464 42.7019 57.2557 43.0296C57.3323 43.2593 57.3331 43.8166 57.2574 44.2324C57.181 44.6536 56.8794 45.9837 56.8083 46.214C56.5572 47.0263 55.9883 47.4906 55.0469 47.6509C54.9319 47.6705 54.5395 47.708 54.1749 47.7342C52.7932 47.8334 52.3435 47.9243 51.7207 48.2299C51.3915 48.3915 51.1012 48.5964 50.8086 48.8735C50.2466 49.4061 49.9137 50.0829 49.8239 50.8757C49.8121 50.9798 49.7933 51.0733 49.7821 51.0835C49.7563 51.1072 48.9981 51.0306 48.4838 50.9523C47.6794 50.8298 46.958 50.6734 46.0509 50.425C44.9623 50.127 43.9319 49.7194 42.7008 49.0999C42.14 48.8177 41.4127 48.3982 41.4127 48.3569C41.4127 48.3414 41.4815 48.1553 41.5656 47.9433C42.0236 46.7886 42.6388 44.9271 43.0337 43.5013C43.4661 41.9401 43.8092 40.2804 44.1235 38.2301C44.3057 37.0411 44.3556 36.7436 44.4376 36.3551ZM64.0211 46.5383C64.2914 46.1812 64.5006 45.9762 64.689 45.8836C64.9058 45.7768 65.1068 45.823 65.1914 45.9991C65.2547 46.131 65.2957 46.3668 65.3248 46.7678C65.3821 47.5586 65.4682 48.0417 65.6391 48.5313C65.777 48.926 65.9353 49.2239 66.2593 49.6988C67.0153 50.8066 67.2698 51.4773 67.2285 52.2512C67.2136 52.5287 67.1698 52.7655 67.0367 53.2898C66.8612 53.9801 66.7298 54.7092 66.6402 55.4892L66.5949 55.8833L66.4917 55.9727C66.1948 56.23 65.5169 56.6975 65.0148 56.9913C64.6674 57.1947 63.8081 57.6153 63.4022 57.7807C62.9685 57.9576 62.4185 58.1444 61.9691 58.2677C61.5886 58.3721 60.8963 58.5186 60.6403 58.5489L60.5059 58.5648L60.4895 58.4568C60.4566 58.2401 60.3526 57.8606 60.2692 57.6528C60.0896 57.2056 59.8325 56.8664 59.5157 56.6585C59.2808 56.5043 59.1131 56.443 58.7097 56.3635C58.2625 56.2754 58.0291 56.169 57.8111 55.9538C57.3537 55.5021 57.1504 54.7753 57.1148 53.4636L57.1004 52.9308L57.3729 52.752C58.3347 52.1207 58.8199 51.512 59.1746 50.4909C59.3659 49.94 59.5192 49.7034 59.8375 49.4671C60.0303 49.3241 60.2083 49.2366 60.5076 49.1379C60.9486 48.9926 61.2183 48.9565 61.9577 48.9437L62.6154 48.9324L62.7871 48.5871C63.1668 47.823 63.6272 47.0586 64.0211 46.5383ZM39.9642 51.7873C40.1636 51.3425 40.2876 51.0785 40.7856 50.0393C40.8605 49.883 40.9065 49.8125 40.9282 49.8207C40.9458 49.8274 41.1292 49.9321 41.3358 50.0534C42.2361 50.5823 43.1951 51.0378 44.3749 51.497C45.8327 52.0644 47.595 52.5021 49.2602 52.7105C49.4704 52.7369 49.6872 52.7641 49.7419 52.7713L49.8415 52.7842L49.8907 52.9439C49.9964 53.2876 50.3084 54.4433 50.4072 54.8573C51.0532 57.5637 51.2537 60.0506 51.051 62.8408C50.9897 63.6849 50.902 64.5686 50.7044 66.3313C50.3993 69.0534 50.3416 69.7567 50.3412 70.7533C50.3408 71.8803 50.473 72.5123 50.7774 72.8383C50.9217 72.9928 50.9936 73.0295 51.3403 73.1253C51.7888 73.2489 52.0641 73.3861 52.261 73.5835C52.628 73.9515 52.7834 74.5289 52.6034 74.8554C52.4679 75.1009 52.2519 75.1641 51.49 75.1811C50.9314 75.1937 50.3643 75.1705 49.3318 75.0927C49.0034 75.0681 48.2616 75.0209 47.6835 74.9879C47.1054 74.9548 46.3744 74.9114 46.0591 74.8911C45.0288 74.8255 44.0479 74.8507 43.1805 74.9654C43.0294 74.9854 42.4166 75.0747 41.8188 75.1643C39.7185 75.4784 38.1719 75.6726 36.2886 75.8582C35.2974 75.9557 35.0089 75.972 34.4896 75.9599C34.0347 75.949 33.9733 75.9424 33.7205 75.876C33.0474 75.6991 32.3099 75.3052 31.69 74.7917C30.8811 74.122 30.0884 73.0179 29.6362 71.9319C28.8296 69.9945 28.7905 67.9165 29.5162 65.553C29.5839 65.3326 29.699 64.9982 29.772 64.8102C30.1827 63.7523 30.7997 62.7818 31.0618 62.7818C31.1874 62.7818 31.1934 62.9888 31.094 63.8959C30.9552 65.1631 30.9206 65.8442 30.9518 66.697C31.031 68.8601 31.6316 70.5693 32.8874 72.2038C33.6083 73.1425 34.1753 73.5001 34.6802 73.3348C34.8793 73.2694 35.0696 73.0665 35.2214 72.7573C35.5645 72.0585 35.7172 71.1835 36.0618 67.9412C36.486 63.9502 36.7583 62.1308 37.2594 59.9398C37.4508 59.1029 37.824 57.684 38.0597 56.8974C38.5223 55.3535 39.2943 53.2819 39.9642 51.7873ZM65.5 58.1978C65.9616 57.9491 66.8774 57.4255 66.9737 57.3552C67.0065 57.3313 67.0424 57.3113 67.0536 57.3109C67.1143 57.3086 68.2127 57.9689 68.6937 58.2968C69.1041 58.5767 69.8949 59.1525 70.1749 59.3752C70.4623 59.604 71.1733 60.2147 71.5567 60.5621C71.8018 60.784 72.6469 61.6476 72.9819 62.0183C73.2934 62.3633 74.1154 63.3834 74.4065 63.7864C75.0814 64.7206 75.7386 65.8007 76.2348 66.7913C76.9836 68.2854 77.3972 69.3399 77.8334 70.8654C77.9233 71.18 78.0026 71.4374 78.0098 71.4374C78.0469 71.4374 78.6088 70.968 78.8552 70.7311C80.1987 69.4398 80.9206 67.9599 81.1685 65.9893C81.2093 65.6645 81.2093 64.521 81.1685 64.2204C81.0149 63.0895 80.6718 62.3507 80.1917 62.1175C80.0521 62.0496 80.0131 62.0415 79.8406 62.043C79.5895 62.0454 79.4435 62.094 78.9301 62.3457C78.4478 62.5824 78.2866 62.6404 78.1101 62.6404C77.9098 62.6404 77.7951 62.5636 77.6953 62.3635C77.6192 62.211 77.6162 62.1947 77.6179 61.9332C77.6194 61.7049 77.6299 61.6314 77.6834 61.4729C77.8031 61.1186 77.987 60.8804 78.313 60.6581C78.7482 60.361 79.28 60.2124 79.9123 60.2115C80.6374 60.2105 81.1028 60.3886 81.5721 60.8479C81.86 61.1294 82.0556 61.4051 82.25 61.8031C82.7285 62.782 82.9846 64.2217 82.9485 65.7299C82.9256 66.6856 82.7818 67.4827 82.4729 68.3674C82.2647 68.9643 81.817 69.9454 81.4865 70.5293C81.2583 70.933 80.8283 71.5615 80.5269 71.9326C80.2301 72.2981 79.5985 72.9348 79.3004 73.169C78.8393 73.5312 78.2336 73.8885 77.6941 74.1168C77.5659 74.1711 77.2369 74.2611 76.7562 74.3742C75.226 74.733 74.1918 74.9829 73.1489 75.246C72.0442 75.5246 71.6889 75.5957 70.9035 75.6944C70.2065 75.782 69.7456 75.8079 69.1476 75.7933C68.4645 75.7768 68.1376 75.7371 67.2407 75.5628C66.5186 75.4224 66.1221 75.3583 65.6239 75.3005C65.233 75.2554 63.9699 75.2625 63.1442 75.3146C62.257 75.3706 61.4953 75.3588 61.1984 75.2845C60.8597 75.1998 60.6465 75.055 60.5606 74.8521C60.5064 74.7228 60.5126 74.4267 60.5738 74.2288C60.7137 73.7775 60.9222 73.5657 61.4259 73.3636C61.7021 73.2528 61.8385 73.111 61.886 72.8849C61.9258 72.6959 61.8716 72.4706 61.6859 72.0536L61.401 71.4139C60.9404 70.3797 60.7779 69.6937 60.7779 68.7841C60.7779 68.0823 60.8665 67.3934 61.0957 66.3133C61.3094 65.305 61.3495 64.9945 61.3751 64.138C61.4129 62.8869 61.2472 61.4317 60.9307 60.2356C60.9053 60.1387 60.8864 60.058 60.8891 60.056C60.8919 60.0538 61.0553 60.0024 61.2524 59.9417C62.7637 59.4754 64.2961 58.8462 65.5 58.1978Z" fill="#271406"/>
<path fill-rule="evenodd" clip-rule="evenodd" d="M58.6377 0.937557C59.3597 0.425353 60.2087 0.115439 61.1337 0.0263183C62.2017 -0.0765297 63.3957 0.125982 64.31 0.565083C65.126 0.956983 65.7497 1.49738 66.258 2.25375C67.679 4.36777 67.0697 7.58187 64.9853 8.9652C64.3953 9.35663 63.6607 9.65017 62.9623 9.77347C62.4657 9.8611 61.5903 9.8679 61.093 9.78793C60.196 9.64383 59.477 9.36843 58.7413 8.88723C58.359 8.63717 57.7383 8.0322 57.485 7.66293C57.1413 7.1619 56.8473 6.4591 56.7203 5.83497C56.631 5.39547 56.64 4.39263 56.7373 3.94187C56.8863 3.25226 57.145 2.61781 57.4837 2.11071C57.714 1.76579 58.2773 1.19323 58.6377 0.937557ZM40.858 1.97222C40.8693 1.96065 41.263 1.84876 41.732 1.72358C42.2013 1.59844 42.6143 1.49451 42.6497 1.49266C42.708 1.48964 42.7507 1.62781 43.1057 2.96244C43.321 3.77267 43.6257 4.93723 43.7823 5.55037C43.9393 6.1635 44.3 7.53717 44.5843 8.6029C44.869 9.6687 45.0947 10.5587 45.086 10.5807C45.0723 10.6163 43.449 11.0469 43.2913 11.0568C43.2223 11.0611 43.1567 10.8345 42.6147 8.71957C42.4643 8.13273 42.0027 6.37923 41.589 4.8229C41.1753 3.26662 40.8463 1.98381 40.858 1.97222ZM64.8717 3.73433C64.4953 2.76895 63.5653 2.07643 62.3903 1.88673C61.9917 1.82232 61.3387 1.82936 60.997 1.90173C59.8717 2.13985 58.994 2.94317 58.6983 4.00557C58.506 4.69587 58.5363 5.4658 58.779 6.07123C59.2547 7.2575 60.465 7.987 61.9573 7.987C62.751 7.987 63.3917 7.7874 63.964 7.36187C64.2637 7.13907 64.51 6.83897 64.707 6.45683C65.144 5.6103 65.2057 4.5901 64.8717 3.73433ZM37.081 3.63367C37.0217 3.18712 37.3787 2.74579 37.8603 2.6704C38.0657 2.63823 38.2037 2.65954 38.406 2.75458C38.782 2.93132 38.9853 3.4617 38.84 3.88613C38.7037 4.28503 38.119 4.54843 37.6683 4.41403C37.3883 4.3305 37.1277 3.98433 37.081 3.63367ZM48.8223 4.3601C49.001 3.6924 49.562 3.19894 50.2957 3.06488C51.3663 2.86912 52.2637 3.4573 52.47 4.48997C52.6627 5.4554 52.2343 6.27063 51.3673 6.5889C51.136 6.67383 51.038 6.69117 50.7113 6.7048C50.419 6.71703 50.278 6.70843 50.1197 6.6687C49.4657 6.50473 48.9953 6.02973 48.8243 5.36053C48.763 5.12047 48.762 4.5859 48.8223 4.3601ZM68.539 6.2055C68.8553 5.66907 69.406 5.26877 70.0033 5.14137C70.9317 4.9433 72.1377 5.3472 72.7317 6.05527C72.8873 6.2409 73.064 6.5894 73.1197 6.82087C73.1787 7.06633 73.1653 7.55233 73.0917 7.83773C72.9563 8.36287 72.6913 8.71193 72.2783 8.9096C71.8973 9.09193 71.6243 9.13277 70.5787 9.16377C69.5903 9.1931 69.396 9.22717 69.1323 9.41713C68.9683 9.5354 68.8447 9.70107 68.9047 9.7219C68.928 9.72997 69.6883 9.9607 70.5947 10.2346C71.5007 10.5085 72.2517 10.7419 72.2633 10.7533C72.2837 10.7733 71.9403 11.9452 71.9033 11.982C71.8933 11.9919 71.8213 11.9794 71.7437 11.9542C71.365 11.8313 68.178 10.8713 67.7153 10.7407C67.425 10.6588 67.175 10.5803 67.1597 10.5662C67.1187 10.528 67.4447 9.50633 67.5913 9.21377C67.832 8.7346 68.1047 8.45583 68.532 8.25277C68.909 8.07353 69.1393 8.04627 70.1947 8.05607C71.0023 8.06353 71.1463 8.05747 71.3063 8.00903C71.714 7.88573 71.9487 7.48817 71.8433 7.09903C71.741 6.7202 71.1343 6.36257 70.5947 6.36257C70.304 6.36257 70.114 6.43447 69.9073 6.62247C69.747 6.7684 69.539 7.10113 69.539 7.21173C69.539 7.2352 69.5167 7.25443 69.4897 7.25443C69.3723 7.25443 68.2833 6.92113 68.2677 6.8804C68.2447 6.82077 68.3913 6.45597 68.539 6.2055ZM37.7567 5.76073C37.766 5.7514 38.158 5.61173 38.628 5.4504C39.0977 5.28903 39.505 5.15593 39.5327 5.1546C39.571 5.1528 39.6597 5.3787 39.8973 6.08387C40.219 7.0373 41.5937 11.0179 41.7087 11.3286C41.7597 11.4663 41.7643 11.5061 41.731 11.5266C41.6733 11.5623 40.0127 12.1277 39.9657 12.1277C39.9237 12.1277 39.8387 11.8893 38.8267 8.9266C38.4437 7.80543 38.0423 6.6383 37.9347 6.33293C37.8273 6.02757 37.747 5.77007 37.7567 5.76073ZM28.3358 7.21043C29.293 6.20347 30.465 5.61703 31.964 5.3949C32.0168 5.3871 32.3191 5.38553 32.6358 5.3915C33.4597 5.40697 34.032 5.54517 34.7117 5.8927C35.997 6.5499 37.021 7.98367 37.311 9.5318C37.3973 9.99337 37.3903 10.785 37.296 11.2259C37.123 12.0324 36.732 12.8046 36.16 13.4701C35.4247 14.3258 34.148 15.0509 32.9077 15.3175C32.4515 15.4155 31.3788 15.4247 30.957 15.3343C29.9689 15.1223 29.1301 14.6771 28.4594 14.0087C27.936 13.487 27.4983 12.7666 27.249 12.0162C26.6908 10.3364 27.1049 8.50533 28.3358 7.21043ZM79.4803 7.6207C79.8853 6.91997 80.337 6.14263 80.4843 5.8933C80.6317 5.64397 80.7633 5.4397 80.777 5.43943C80.8143 5.4386 81.7117 5.94517 82.9757 6.68057C83.6003 7.0441 84.345 7.4731 84.6307 7.63397C85.2687 7.9934 85.5667 8.21193 85.9193 8.57923C87.005 9.7098 87.256 11.1732 86.5837 12.4535C86.0333 13.5016 85.0463 14.1018 83.7833 14.1568C83.1383 14.1848 82.577 14.0876 82.019 13.8511C81.9023 13.8018 81.4257 13.5397 80.9597 13.2689C79.7653 12.5747 79.0703 12.1826 79.0583 12.1959C79.0527 12.2022 78.854 12.5441 78.6167 12.9558C77.82 14.3376 77.713 14.5141 77.6713 14.5154C77.6127 14.517 76.063 13.624 76.0453 13.5784C76.0377 13.5579 76.2997 13.0833 76.628 12.5238C76.9563 11.9643 77.376 11.2414 77.5607 10.9173C77.7453 10.5932 78.0873 10.0056 78.3203 9.61143C78.5533 9.21727 79.0753 8.32143 79.4803 7.6207ZM35.3247 9.5638C34.9833 8.42127 34.1663 7.58193 33.1347 7.31343C32.8195 7.23147 32.2397 7.20997 31.9102 7.26807C30.7668 7.4698 29.6807 8.24127 29.1978 9.19487C28.9322 9.7193 28.8503 10.5141 28.9994 11.1193C29.2943 12.3153 30.0993 13.1676 31.2054 13.4548C31.7731 13.6023 32.4804 13.5619 33.0796 13.348C34.3307 12.9013 35.1637 12.0253 35.3887 10.9192C35.4677 10.5312 35.44 9.95097 35.3247 9.5638ZM83.4977 9.0398C83.1137 8.8218 82.52 8.48137 82.1787 8.28333C81.837 8.08533 81.5543 7.9233 81.5503 7.9233C81.5413 7.9233 80.8197 9.15767 80.3517 9.97383C80.0223 10.5477 79.9937 10.6107 80.043 10.6467C80.073 10.6685 80.3097 10.8083 80.5687 10.9573C82.4903 12.0622 82.7267 12.1986 82.981 12.2728C83.019 12.2839 83.0573 12.2936 83.102 12.305C83.3723 12.374 83.816 12.3547 84.0703 12.263C85.0207 11.9201 85.3317 10.7989 84.7153 9.9389C84.5107 9.6531 84.2863 9.48757 83.4977 9.0398ZM85.1463 16.8998C85.504 15.5535 86.654 14.546 88.0463 14.3591C88.7483 14.2649 89.5663 14.4228 90.3343 14.8007C91.6457 15.4459 92.6313 16.7081 92.8643 18.0406C92.9197 18.3574 92.8843 19.0912 92.7987 19.4057C92.7103 19.7299 92.468 20.2323 92.2593 20.5247C92.0757 20.7818 91.751 21.1416 91.7023 21.1416C91.6847 21.1416 91.5027 20.9966 91.298 20.8194C91.0933 20.6421 90.6233 20.2385 90.2537 19.9224C89.8843 19.6063 89.222 19.0364 88.7823 18.6559C87.3457 17.4134 87.087 17.1981 87.06 17.2233C86.978 17.3 86.87 17.7045 86.8557 17.9883C86.8173 18.7428 87.2073 19.4506 87.9553 19.9833C88.3637 20.2743 88.7187 20.387 89.2383 20.3906L89.5987 20.3931L90.302 20.995C90.689 21.3261 91.0057 21.6089 91.0057 21.6235C91.0057 21.669 90.7017 21.8061 90.422 21.8868C89.1597 22.251 87.7633 21.8718 86.5983 20.8483C85.792 20.1401 85.2807 19.2773 85.1013 18.3228C85.0303 17.9443 85.052 17.2544 85.1463 16.8998ZM19.2052 16.8288C19.7608 16.2753 20.493 15.9083 21.2065 15.8257C21.5407 15.787 21.5842 15.787 21.9237 15.8246C22.6454 15.9047 23.2461 16.1715 23.9715 16.7342C24.1163 16.8465 24.5232 17.2462 24.8833 17.6299C25.2409 18.011 25.7687 18.5619 26.0562 18.8541C26.3436 19.1463 26.574 19.4043 26.5681 19.4274C26.559 19.4626 26.2513 19.7587 25.3416 20.6075C25.2712 20.6732 25.2048 20.727 25.1939 20.7272C25.1832 20.7274 24.7812 20.3155 24.3007 19.8118C22.8666 18.3085 22.7266 18.1763 22.4122 18.0272C22.0664 17.8633 21.8596 17.816 21.5025 17.8192C20.7696 17.8257 20.0231 18.3077 19.6984 18.9841C19.5306 19.3337 19.4903 19.5355 19.5113 19.9203C19.546 20.5541 19.6978 20.8111 20.5831 21.7345C21.7217 22.9222 22.2543 23.4934 22.2543 23.5267C22.2543 23.5443 22.2277 23.5775 22.1953 23.6003C22.1628 23.6232 21.8592 23.9071 21.5207 24.2312C21.1822 24.5553 20.8911 24.8205 20.8739 24.8205C20.8566 24.8205 20.6599 24.6245 20.4367 24.385C20.2135 24.1454 19.7429 23.6499 19.391 23.2838C18.1881 22.0324 16.9889 20.7756 16.6002 20.3588L16.2117 19.9423L16.5857 19.5783C16.7913 19.3781 17.0689 19.1095 17.2025 18.9814L17.4453 18.7485L18.3033 19.3845L18.3238 18.9173C18.3635 18.0159 18.6174 17.4143 19.2052 16.8288ZM89.8203 16.3211C89.654 16.2408 89.4243 16.1533 89.31 16.1266C89.118 16.0819 88.7 16.0676 88.5103 16.0993C88.276 16.1383 87.7423 16.3677 87.7423 16.4293C87.7423 16.4428 88.0413 16.7089 88.4063 17.0205C88.7713 17.3321 89.2933 17.7828 89.566 18.0221C90.2197 18.5956 90.8233 19.1017 90.8547 19.1025C90.896 19.1035 91.008 18.8166 91.0597 18.5776C91.1957 17.9482 90.9647 17.3068 90.3983 16.742C90.1677 16.5118 90.0737 16.4434 89.8203 16.3211ZM93.9267 20.5575C93.9313 20.5429 94.0567 20.4256 94.2057 20.2969C94.355 20.1682 94.4983 20.0626 94.5247 20.0624C94.5513 20.0621 95.356 20.1295 96.313 20.2122L98.053 20.3626L98.2877 20.6327C98.4167 20.7812 98.522 20.9242 98.5217 20.9505C98.5213 20.9768 98.2697 21.2055 97.9627 21.4588C97.6553 21.712 97.404 21.9225 97.404 21.9266C97.404 21.9306 97.6857 22.2609 98.0297 22.6606L98.655 23.3871L98.5327 23.4986C98.2427 23.7636 97.303 24.5327 97.2827 24.522C97.2703 24.5156 96.9957 24.2002 96.6727 23.8213C96.3497 23.4424 96.074 23.1203 96.0603 23.1055C96.0313 23.0743 94.6857 24.2003 94.4353 24.4653C93.8963 25.0357 93.9243 25.7309 94.5173 26.507C94.5967 26.6113 94.6637 26.7132 94.6653 26.7334C94.6673 26.7536 94.4457 26.9537 94.173 27.178C93.9 27.4023 93.6093 27.648 93.5263 27.7241C93.4437 27.8001 93.3547 27.8623 93.3287 27.8623C93.3027 27.8623 93.1757 27.7225 93.0467 27.5517C92.633 27.0042 92.393 26.5399 92.2437 25.999C92.1833 25.7802 92.1737 25.6653 92.1747 25.1867C92.1763 24.6646 92.182 24.6122 92.2657 24.3586C92.5047 23.6343 92.8323 23.2388 94.0097 22.2547C94.3333 21.9841 94.6393 21.7269 94.6893 21.6831L94.7807 21.6035L94.3497 21.0938C94.1127 20.8136 93.9223 20.5722 93.9267 20.5575ZM13.5054 23.5229C13.9832 23.2063 14.4697 23.0017 14.9708 22.9067C15.3451 22.8357 16.0592 22.867 16.4158 22.97C16.777 23.0744 17.3426 23.3517 17.6171 23.5589C18.0879 23.9144 18.5166 24.4494 18.7254 24.942C18.9264 25.4159 18.9734 25.6731 18.9742 26.3015C18.9748 26.8075 18.9667 26.8898 18.8873 27.1934C18.6404 28.1367 18.1959 28.9107 17.5049 29.6007C16.8504 30.2541 16.1919 30.6279 15.3672 30.8141C15.2074 30.8502 14.9879 30.8661 14.6562 30.8655C14.2416 30.8649 14.1329 30.8534 13.8571 30.7809C13.4776 30.6812 12.9775 30.4427 12.687 30.223C12.3968 30.0034 12.0296 29.6126 11.8322 29.3134C10.9988 28.0495 11.1422 26.2996 12.2018 24.8045C12.5014 24.3818 13.1055 23.7879 13.5054 23.5229ZM17.0271 25.8851C16.8399 25.3493 16.4149 24.9681 15.8412 24.8214C15.4481 24.721 15.0269 24.7807 14.6116 24.9958C13.9803 25.3228 13.4309 26.0131 13.2286 26.7337C13.1259 27.0992 13.1305 27.5418 13.2403 27.8532C13.4022 28.3124 13.7961 28.7202 14.2403 28.8884C14.4013 28.9494 14.4916 28.9609 14.8001 28.9594C15.1151 28.9578 15.1991 28.9458 15.3837 28.8758C15.6924 28.7588 15.9259 28.6106 16.1979 28.359C16.9438 27.6689 17.2897 26.637 17.0271 25.8851ZM97.487 26.4952C97.6823 26.1068 98.14 25.7567 98.5963 25.6466C99.014 25.5458 99.5027 25.6145 99.9913 25.8426C100.505 26.0823 100.945 26.4619 101.363 27.0255C102.377 28.3905 102.652 29.7175 102.128 30.713C102.067 30.8298 101.917 31.0154 101.744 31.1907C101.489 31.4478 101.456 31.4714 101.423 31.4197C101.403 31.388 101.175 31.0297 100.915 30.6236C100.656 30.2174 100.443 29.8728 100.443 29.8577C100.443 29.8427 100.48 29.7869 100.525 29.7339C100.824 29.3801 100.836 28.9255 100.56 28.3809C100.241 27.7523 99.7373 27.3422 99.347 27.3944C99.005 27.44 98.8407 27.767 98.9367 28.2117C98.984 28.4324 99.201 28.9793 99.4677 29.5504C99.8887 30.4525 100.022 30.8767 100.05 31.3978C100.07 31.7741 100.025 32.0119 99.8807 32.2954C99.7093 32.6319 99.255 33.013 98.8563 33.1545C98.595 33.2472 98.1587 33.2671 97.868 33.1997C97.581 33.1331 97.063 32.8815 96.7963 32.6791C96.1427 32.183 95.4073 31.1389 95.0863 30.2511C94.8017 29.4634 94.7727 28.6898 95.0047 28.0755C95.0993 27.8254 95.3547 27.4525 95.5537 27.2744C95.6437 27.1938 95.7207 27.1319 95.725 27.1368C95.7583 27.1758 96.706 28.6679 96.7193 28.7028C96.729 28.7275 96.6873 28.8173 96.627 28.9022C96.5667 28.9872 96.501 29.1054 96.481 29.165C96.431 29.3131 96.4357 29.69 96.49 29.8934C96.5963 30.2909 96.8977 30.7938 97.2033 31.0843C97.436 31.3051 97.619 31.4003 97.8497 31.4203C98 31.4333 98.045 31.424 98.137 31.361C98.5513 31.0769 98.514 30.7034 97.9383 29.3715C97.2653 27.8149 97.1603 27.1457 97.487 26.4952ZM7.47683 32.5547C8.0227 31.7571 8.87083 31.2849 9.88933 31.2115C10.4136 31.1737 10.9617 31.2332 11.4974 31.386C11.8493 31.4864 14.8321 32.6671 14.8321 32.706C14.8321 32.7218 14.7334 32.9822 14.6127 33.2846C14.492 33.587 14.3393 33.974 14.2734 34.145C14.2042 34.3243 14.1356 34.4557 14.1107 34.4557C14.0871 34.4557 13.3812 34.1827 12.5421 33.849C11.7029 33.5153 10.9283 33.2217 10.8208 33.1965C10.5644 33.1363 10.0948 33.1371 9.859 33.1983C9.25943 33.3537 8.78663 33.8057 8.58343 34.418C8.41223 34.9337 8.4383 35.38 8.66623 35.8363C8.89987 36.3037 9.2933 36.6187 9.96933 36.8797C10.1541 36.9507 10.8501 37.2247 11.516 37.488C12.6291 37.928 12.7254 37.9723 12.7114 38.0347C12.6968 38.0997 12.2081 39.375 12.1028 39.6233C12.0749 39.689 12.0295 39.743 12.002 39.743C11.9744 39.743 11.2862 39.4763 10.4727 39.151C9.6592 38.8253 8.8869 38.5313 8.7565 38.498C8.4685 38.424 8.0511 38.4187 7.76483 38.486C7.46727 38.5557 7.19907 38.709 6.9601 38.9457C6.71723 39.1863 6.58607 39.401 6.46367 39.7587C6.31583 40.1907 6.34847 40.7267 6.5461 41.1123C6.6576 41.33 6.90273 41.62 7.09937 41.7673C7.37957 41.977 7.56997 42.0657 8.52943 42.434C10.4672 43.1777 10.6434 43.2527 10.6214 43.3243C10.5779 43.4663 9.96427 45.0157 9.9435 45.036C9.9313 45.048 9.36707 44.8363 8.68963 44.5657C8.0122 44.2947 7.22987 43.987 6.9511 43.8813C6.24267 43.613 3.7237 42.615 3.6732 42.5827C3.641 42.562 3.68907 42.4087 3.88557 41.9057C4.21037 41.0747 4.2409 40.993 4.28417 40.9857C4.29023 40.9847 4.29653 40.985 4.30393 40.985C4.3338 40.985 4.5558 41.028 4.79733 41.0807C5.03883 41.133 5.24227 41.176 5.2494 41.176C5.25657 41.176 5.19947 41.0437 5.12253 40.8817C4.9249 40.4653 4.8489 40.174 4.82767 39.751C4.79953 39.191 4.89223 38.7617 5.153 38.2443C5.46073 37.634 5.873 37.1953 6.42043 36.8963C6.69193 36.748 7.2337 36.5713 7.55927 36.5247L7.8206 36.4873L7.6045 36.204C7.27707 35.7747 7.0552 35.2853 6.9595 34.7817C6.90403 34.49 6.93867 33.8313 7.02513 33.5317C7.10597 33.2519 7.32727 32.7732 7.47683 32.5547ZM102.664 36.4513C102.904 36.1027 103.319 35.8287 103.808 35.6963C104.118 35.6127 104.564 35.6277 104.842 35.7313C105.42 35.9463 105.887 36.4933 106.056 37.1517C106.117 37.392 106.12 37.8237 106.062 38.043C105.855 38.8137 105.009 39.4057 104.122 39.3997C103.449 39.3953 102.914 39.034 102.588 38.364C102.409 37.9947 102.353 37.7293 102.371 37.338C102.389 36.965 102.461 36.7477 102.664 36.4513ZM106.922 44.4173C107.269 43.9773 107.829 43.6787 108.552 43.548C109.011 43.465 109.441 43.5177 109.84 43.7063C110.137 43.8467 110.291 43.953 110.569 44.21C111.432 45.0067 111.995 46.5693 112 48.1833C112.001 48.4727 111.984 48.831 111.963 48.9797C111.785 50.235 111.222 51.1483 110.327 51.6343C110.128 51.7423 109.726 51.8937 109.702 51.8697C109.695 51.8633 109.62 51.4237 109.535 50.893L109.379 49.928L109.478 49.87C109.841 49.657 110.063 49.3623 110.234 48.867C110.343 48.5507 110.344 48.548 110.344 47.9603C110.344 47.446 110.335 47.3327 110.269 47.0687C110.073 46.2867 109.746 45.752 109.331 45.534C109.226 45.479 109.14 45.462 108.969 45.462C108.605 45.462 108.387 45.6183 108.25 45.9773C108.12 46.317 108.11 46.48 108.107 48.247C108.104 49.7617 108.098 49.985 108.045 50.2537C107.812 51.4547 107.284 52.1473 106.331 52.504C105.05 52.983 103.87 52.57 103.057 51.3593C102.521 50.5607 102.22 49.595 102.142 48.4273C102.017 46.563 102.691 44.9583 103.867 44.319C104.112 44.1857 104.569 44.0273 104.601 44.0643C104.614 44.0787 104.678 44.4633 104.745 44.9187C104.878 45.8297 104.911 45.984 104.852 46.037C104.832 46.0557 104.801 46.0617 104.758 46.0833C104.396 46.267 104.037 46.7903 103.897 47.3393C103.59 48.5477 104.077 50.2197 104.862 50.6527C105.013 50.736 105.066 50.7473 105.29 50.747C105.492 50.7467 105.574 50.7313 105.679 50.6763C105.935 50.5413 106.112 50.2567 106.211 49.825C106.236 49.7163 106.248 49.1107 106.25 47.9447C106.252 46.3163 106.255 46.205 106.321 45.8583C106.439 45.2407 106.626 44.793 106.922 44.4173ZM0.449903 46.52C0.435697 46.506 0.711823 44.986 0.77696 44.7197C0.786587 44.6803 0.81695 44.648 0.844367 44.648C0.89616 44.648 2.02331 44.8603 5.42643 45.5117C7.25837 45.862 10.0009 46.368 10.0689 46.368C10.0845 46.368 10.0973 46.4003 10.0973 46.4397C10.0973 46.5423 9.77327 48.2267 9.74807 48.2547C9.7365 48.2677 9.0538 48.1497 8.231 47.9923C7.40817 47.835 6.1418 47.599 5.41687 47.4673C3.5952 47.137 0.471177 46.5413 0.449903 46.52ZM2.53784 50.988C2.51458 50.9667 2.56983 49.4287 2.59712 49.338C2.60371 49.3163 2.64914 49.298 2.69809 49.298C2.91634 49.2973 9.34697 49.6237 9.35957 49.6363C9.38857 49.665 9.29497 51.2867 9.2632 51.3063C9.24527 51.3173 9.0549 51.3527 8.84017 51.3847C8.6254 51.4167 8.44547 51.446 8.4403 51.4497C8.43513 51.4533 8.50813 51.5583 8.60247 51.6833C8.9089 52.089 9.17433 52.7063 9.288 53.2783C9.36353 53.6583 9.36223 54.5 9.2855 54.887C9.2027 55.3047 9.0574 55.737 8.87837 56.0987C8.42393 57.0163 7.603 57.6897 6.61673 57.954C6.33777 58.0287 6.2493 58.037 5.74633 58.037C5.2421 58.037 5.1547 58.0287 4.86657 57.9523C3.8286 57.678 2.93973 56.91 2.50812 55.9147C1.8446 54.3843 2.14642 52.474 3.22699 51.3643L3.3707 51.2167L2.96692 51.114C2.74483 51.0577 2.55173 51.001 2.53784 50.988ZM7.53587 52.7703C7.34167 52.0727 6.86967 51.5803 6.23803 51.4167C6.13617 51.3903 5.94427 51.3697 5.8116 51.3713C5.32323 51.3767 4.9543 51.5293 4.61023 51.8687C4.10673 52.365 3.8626 53.081 3.90107 53.9487C3.92243 54.4307 3.9793 54.6663 4.17013 55.0633C4.28983 55.3123 4.3586 55.4083 4.55903 55.6053C4.93797 55.9783 5.261 56.1143 5.7657 56.1143C6.2317 56.1143 6.6285 55.9367 6.98307 55.569C7.18827 55.356 7.32067 55.1477 7.42327 54.8757C7.6799 54.1953 7.72057 53.434 7.53587 52.7703ZM104.163 54.4113C104.603 54.0607 105.242 53.776 105.77 53.6947C105.876 53.6787 106.171 53.6707 106.426 53.677C106.974 53.691 107.351 53.774 107.786 53.977C108.914 54.5037 109.661 55.5487 109.87 56.8947C109.931 57.2873 109.913 58.0493 109.833 58.4227C109.667 59.209 109.343 59.8537 108.882 60.3187L108.709 60.494L109.571 60.717L109.564 61.0037C109.551 61.5357 109.507 62.3483 109.489 62.377C109.478 62.3937 108.921 62.3827 108.148 62.3507C107.421 62.3207 105.913 62.26 104.797 62.216C103.681 62.172 102.757 62.1247 102.745 62.1113C102.732 62.0977 102.738 61.714 102.758 61.2583L102.795 60.4303L103.207 60.3597C103.434 60.321 103.627 60.2813 103.636 60.2717C103.646 60.2623 103.617 60.2153 103.572 60.1673C103.431 60.018 103.192 59.623 103.061 59.323C102.326 57.6363 102.807 55.4913 104.163 54.4113ZM107.498 56.0987C107.248 55.851 107.043 55.7267 106.761 55.6537C106.507 55.588 106.073 55.5933 105.85 55.6647C105.357 55.8233 104.98 56.1623 104.729 56.6737C104.409 57.3247 104.336 58.2153 104.542 58.954C104.777 59.8003 105.45 60.3483 106.256 60.3503C107.326 60.3527 108.102 59.4433 108.175 58.1027C108.221 57.2647 107.993 56.5903 107.498 56.0987ZM4.0734 61.0353C4.3812 59.9143 5.0959 59.2723 6.2726 59.0593C7.48387 58.8403 8.57157 59.503 9.25987 60.879C9.5169 61.393 9.67983 61.9117 9.7944 62.5807C9.86483 62.992 9.89243 64.0173 9.84383 64.4167C9.6478 66.0267 8.82957 67.2287 7.67483 67.6037C7.5302 67.6507 7.40337 67.6807 7.39307 67.6703C7.37947 67.6567 7.09003 65.7873 7.09003 65.713C7.09003 65.7073 7.1611 65.667 7.248 65.623C7.73283 65.3783 8.09197 64.7297 8.18063 63.9377C8.28577 62.999 7.97987 61.8657 7.477 61.3303C7.24423 61.0827 7.0473 60.979 6.77673 60.9613C6.30587 60.9307 5.9972 61.196 5.8354 61.7707C5.7666 62.015 5.76433 62.0723 5.7611 63.6313C5.7589 64.6957 5.7446 65.337 5.71893 65.5267C5.5894 66.483 5.25413 67.2093 4.76353 67.5973C4.51367 67.795 4.12423 67.9793 3.74273 68.0807C3.33927 68.188 2.76915 68.2013 2.4688 68.1107C1.11125 67.701 0.180079 66.1117 0.0170463 63.9263C-0.067989 62.7867 0.166802 61.742 0.683797 60.96C0.857193 60.6977 1.24782 60.3223 1.52721 60.1497C1.78746 59.9887 2.2861 59.7897 2.32375 59.8317C2.33623 59.8457 2.40645 60.2583 2.47981 60.7487C2.5532 61.2393 2.62003 61.6723 2.62835 61.7107C2.64038 61.7663 2.62016 61.792 2.53007 61.8343C2.36963 61.9103 2.12351 62.139 2.00578 62.3217C1.56125 63.0113 1.5139 64.1417 1.88802 65.1333C2.1611 65.857 2.5746 66.2587 3.043 66.2553C3.44447 66.2523 3.67873 66.0243 3.81573 65.5037C3.86003 65.3353 3.8719 65.0257 3.89033 63.5517C3.9132 61.726 3.9238 61.5803 4.0734 61.0353ZM102.029 65.3477C101.999 65.3207 102.051 64.992 102.256 63.91C102.321 63.567 102.35 63.472 102.39 63.472C102.417 63.472 103.484 63.665 104.761 63.9003C106.037 64.136 107.42 64.387 107.834 64.4583C109.359 64.721 111.625 65.1373 111.65 65.1593C111.686 65.1913 111.345 67.0123 111.301 67.0297C111.28 67.0373 110.057 66.8213 108.581 66.5493C107.105 66.2777 105.682 66.0183 105.418 65.9727C103.884 65.709 102.055 65.3717 102.029 65.3477ZM101.521 68.4757C101.507 68.4617 101.65 68.054 101.839 67.5697C102.027 67.0853 102.192 66.689 102.204 66.689C102.225 66.689 103.913 67.344 104.666 67.6443C104.851 67.718 105.456 67.9503 106.01 68.1603C107.106 68.576 108.482 69.1103 108.502 69.1283C108.508 69.1347 108.498 69.1797 108.479 69.2283C108.46 69.277 108.327 69.625 108.183 70.0017C108.039 70.3783 107.912 70.6977 107.899 70.711C107.887 70.7247 107.665 70.691 107.405 70.6363C107.146 70.5813 106.927 70.543 106.919 70.551C106.912 70.5587 106.97 70.702 107.05 70.8693C107.274 71.3393 107.331 71.5917 107.334 72.1197C107.337 72.647 107.275 72.9283 107.05 73.4013C106.57 74.411 105.786 75.0027 104.681 75.188L104.335 75.246L104.464 75.387C104.769 75.72 105.062 76.261 105.182 76.7133C105.221 76.8603 105.255 77.11 105.264 77.3273C105.292 77.9417 105.142 78.4753 104.772 79.088C104.028 80.317 102.503 80.8373 100.877 80.4167C100.681 80.366 99.9383 80.0957 99.2117 79.8107C98.4903 79.5277 97.7813 79.251 97.636 79.196C97.491 79.1413 97.372 79.085 97.372 79.071C97.372 79.057 97.4427 78.863 97.5293 78.6403C97.6157 78.4177 97.7617 78.0347 97.8537 77.7893C97.946 77.544 98.035 77.3347 98.0517 77.3237C98.0847 77.3023 98.4867 77.451 100.117 78.088C100.703 78.3167 101.289 78.526 101.419 78.5527C102.315 78.737 103.116 78.36 103.494 77.577C103.677 77.1973 103.718 77.0043 103.7 76.608C103.682 76.2297 103.613 76.0177 103.403 75.704C103.243 75.464 103.062 75.294 102.797 75.134C102.705 75.0783 101.919 74.756 101.05 74.418C100.182 74.0797 99.466 73.7867 99.4593 73.767C99.4527 73.747 99.5657 73.4187 99.7107 73.0367L100.037 72.1757C100.075 72.0763 100.12 72.0083 100.148 72.0083C100.175 72.0083 100.874 72.273 101.703 72.5963C102.532 72.9197 103.304 73.2087 103.419 73.2387C103.715 73.316 104.204 73.309 104.474 73.2233C105.279 72.9677 105.823 72.1687 105.778 71.3077C105.752 70.815 105.532 70.3683 105.153 70.0353C104.898 69.8127 104.734 69.7327 103.787 69.3703C102.487 68.8737 101.55 68.5033 101.521 68.4757ZM6.00593 73.369C6.28183 72.8233 6.92873 72.4003 7.5942 72.3307C8.17433 72.27 8.68783 72.4603 9.0525 72.871C9.23517 73.0767 9.46823 73.5363 9.53583 73.8237C9.5971 74.0847 9.59857 74.5203 9.53893 74.7433C9.3854 75.3177 8.91417 75.778 8.25773 75.9953C8.07287 76.0563 7.96957 76.069 7.66587 76.067C7.2576 76.0647 7.06133 76.0103 6.7541 75.8147C5.96533 75.3127 5.6102 74.1517 6.00593 73.369ZM12.6097 78.8387C12.8274 78.6837 12.9566 78.6227 13.2099 78.555C13.8984 78.3703 14.8102 78.7263 15.5439 79.466C16.127 80.0543 16.7021 81.0623 16.9314 81.898C17.0103 82.1857 17.0189 82.2697 17.0201 82.758C17.0213 83.2633 17.0156 83.3167 16.9353 83.5543C16.888 83.6947 16.7949 83.9013 16.7285 84.0137C16.5998 84.2313 16.2242 84.6323 16.1667 84.613C16.1363 84.603 15.644 83.8463 15.2765 83.2447L15.1456 83.0303L15.2453 82.905C15.4133 82.6937 15.4534 82.5663 15.4515 82.2487C15.4495 81.9067 15.347 81.5953 15.0984 81.177C14.6286 80.3867 13.9231 80.1137 13.5714 80.5867C13.5151 80.6623 13.5047 80.7207 13.5063 80.953C13.5084 81.279 13.5786 81.5017 13.9568 82.381C14.5374 83.7317 14.6869 84.4923 14.4851 85.0707C14.3299 85.516 13.9501 85.8867 13.4712 86.0603C13.2114 86.1547 12.6936 86.176 12.3882 86.105C11.4853 85.895 10.5824 85.0403 9.96053 83.8077C9.65577 83.2033 9.5156 82.672 9.5157 82.121C9.51583 81.468 9.7033 81.0027 10.1478 80.5523C10.2905 80.408 10.4233 80.2897 10.443 80.2897C10.4626 80.2897 10.5524 80.414 10.6424 80.5657C10.7325 80.7173 10.9562 81.076 11.1396 81.363C11.3229 81.6497 11.473 81.8927 11.473 81.9033C11.473 81.9137 11.4212 81.9793 11.3579 82.049C11.2247 82.196 11.1679 82.3177 11.1374 82.5213C11.0573 83.0557 11.5817 83.9873 12.1134 84.2553C12.4239 84.412 12.6542 84.3913 12.8509 84.189L12.9606 84.076L12.9577 83.7673C12.9543 83.3957 12.8917 83.2057 12.4779 82.3107C12.0026 81.2827 11.8569 80.8043 11.8579 80.2737C11.8582 80.0987 11.873 79.8923 11.8908 79.8157C11.973 79.4603 12.2344 79.105 12.6097 78.8387ZM93.8753 83.3033C94.5767 82.063 95.7013 81.2 96.9083 80.976C97.276 80.9077 98.0713 80.9297 98.4013 81.017C99.4907 81.3057 100.414 82.162 100.759 83.204C101.069 84.1403 100.962 85.2793 100.473 86.2507C99.898 87.3947 98.9197 88.321 97.8773 88.709C97.443 88.8707 97.229 88.9053 96.6683 88.9047C96.041 88.904 95.791 88.85 95.2687 88.603C94.475 88.227 93.937 87.708 93.5827 86.9767C93.0527 85.8827 93.157 84.5743 93.8753 83.3033ZM99.0693 84.2467C98.9853 83.6287 98.521 83.0727 97.9213 82.8713C97.6947 82.7953 97.2573 82.786 97.017 82.852C96.5117 82.9907 95.951 83.4097 95.6157 83.899C95.4633 84.121 95.2433 84.604 95.184 84.8463C95.1207 85.105 95.118 85.5677 95.179 85.7957C95.302 86.255 95.6133 86.631 96.0347 86.8297C96.3563 86.981 96.5587 87.022 96.8883 87.002C97.379 86.9723 97.7933 86.7743 98.2033 86.3733C98.8343 85.756 99.1643 84.9453 99.0693 84.2467ZM17.5397 84.749C17.7253 84.6 18.0234 84.3533 18.2022 84.201C18.381 84.0487 18.5416 83.9237 18.5592 83.923C18.6048 83.9217 18.9563 84.3947 19.1607 84.733C19.3699 85.079 19.5019 85.3723 19.6195 85.7533C19.7008 86.017 19.7076 86.0803 19.7079 86.5803C19.7083 87.09 19.703 87.1377 19.6179 87.3927C19.504 87.7337 19.3935 87.9507 19.1815 88.2497C18.9418 88.588 18.6582 88.859 17.8154 89.556C17.4063 89.8943 17.0716 90.1767 17.0716 90.1837C17.0716 90.1903 17.2557 90.4143 17.4808 90.6813C17.7059 90.9483 17.9003 91.1837 17.9129 91.204C17.9403 91.2483 17.3796 91.7247 17.3006 91.7237C17.238 91.723 15.8004 91.601 14.6267 91.4967L13.7974 91.423L13.555 91.14C13.4216 90.9843 13.3092 90.8407 13.3051 90.821C13.3011 90.801 13.5279 90.5983 13.8092 90.3707C14.0906 90.143 14.3498 89.9323 14.3853 89.903C14.4485 89.8507 14.4371 89.8343 13.8492 89.1433C13.5188 88.755 13.2386 88.42 13.2264 88.3987C13.2013 88.3553 14.5363 87.2247 14.5806 87.252C14.5954 87.261 14.8689 87.5793 15.1882 87.9597C15.5076 88.3397 15.7793 88.6623 15.7919 88.6763C15.8363 88.7263 17.362 87.4373 17.5291 87.209C17.731 86.933 17.7853 86.7933 17.8009 86.5093C17.8239 86.0927 17.7106 85.7727 17.3754 85.3077C17.2787 85.1733 17.2002 85.0537 17.201 85.0417C17.2017 85.0293 17.3542 84.8977 17.5397 84.749ZM90.014 88.308C90.014 88.299 90.3127 87.9963 90.6777 87.6357C91.0427 87.275 91.3543 86.9793 91.37 86.979C91.3857 86.9787 91.5433 87.1327 91.7207 87.321C91.898 87.509 92.2953 87.9213 92.604 88.2367C92.9127 88.552 93.676 89.3403 94.3003 89.9883C94.9247 90.6367 95.5793 91.3143 95.755 91.4943L96.074 91.8213L95.4673 92.4263C95.1337 92.7587 94.8427 93.024 94.8207 93.0157C94.7987 93.0073 94.6117 92.8737 94.405 92.7187C94.198 92.5637 94.0147 92.4283 93.997 92.418C93.9763 92.406 93.969 92.5003 93.9763 92.6857C94.0033 93.3763 93.769 94.1343 93.361 94.6747C92.9917 95.164 92.3453 95.6253 91.7413 95.8317C90.9463 96.103 90.0573 96.0407 89.216 95.6543C88.5663 95.356 88.2727 95.097 86.48 93.2437L85.6853 92.4217L86.3667 91.7623C86.741 91.4 87.0577 91.0993 87.0697 91.0943C87.0817 91.0897 87.517 91.5267 88.0367 92.066C89.3073 93.3837 89.598 93.6587 89.8547 93.786C90.1437 93.9297 90.398 93.989 90.7337 93.991C91.275 93.9943 91.696 93.825 92.1437 93.424C92.2863 93.296 92.509 92.992 92.602 92.7983C92.912 92.1513 92.8407 91.4653 92.3993 90.8493C92.321 90.7403 91.917 90.3023 91.5013 89.876C90.646 88.999 90.014 88.3327 90.014 88.308ZM20.8467 90.193C20.8467 90.1327 21.3483 89.9413 21.7141 89.8623C21.9962 89.8013 22.6969 89.8013 23.0196 89.8623C23.3491 89.9247 23.853 90.0987 24.1872 90.2653C24.6412 90.4923 24.9976 90.7577 25.4385 91.1973C26.0841 91.841 26.4548 92.4523 26.6612 93.2133C26.7369 93.4927 26.7455 93.5817 26.7473 94.0973C26.7496 94.7853 26.7006 95.0123 26.4311 95.5623C26.2216 95.99 26.0318 96.2433 25.6556 96.5977C25.0576 97.1607 24.3539 97.4467 23.4812 97.481C22.7898 97.508 22.1796 97.374 21.5025 97.0457C21.0522 96.827 20.6634 96.543 20.2548 96.134C19.5343 95.4127 19.1197 94.6657 18.9724 93.8233C18.9027 93.4243 18.9238 92.8317 19.021 92.457C19.1066 92.127 19.3537 91.6003 19.5569 91.3147C19.7163 91.0907 20.102 90.6733 20.1497 90.6733C20.1653 90.6733 20.468 90.9277 20.8224 91.2387C21.1768 91.5493 21.7483 92.0467 22.0925 92.3433C22.4367 92.6397 22.9126 93.0557 23.1501 93.2677C23.3877 93.4797 23.8453 93.879 24.1671 94.155L24.7523 94.657L24.8138 94.5183C25.045 93.998 25.0259 93.3827 24.7622 92.8597C24.6057 92.549 24.4718 92.3753 24.178 92.101C23.8797 91.8227 23.6089 91.6573 23.2621 91.542C23.0467 91.4707 22.9467 91.4567 22.6314 91.454L22.2567 91.4507L21.5517 90.837C21.1639 90.4997 20.8467 90.2097 20.8467 90.193ZM22.5743 94.08C22.2839 93.8233 21.8096 93.4107 21.5202 93.1627C21.2308 92.9147 20.984 92.7117 20.9718 92.7117C20.9595 92.7117 20.9117 92.8053 20.8657 92.92C20.558 93.6853 20.7768 94.4773 21.4778 95.1357C21.8903 95.523 22.3302 95.722 22.8525 95.757C23.2769 95.7853 23.7679 95.66 24.0101 95.4613L24.0862 95.399L23.5942 94.9727C23.3235 94.738 22.8646 94.3363 22.5743 94.08ZM75.9243 98.7097C76.8083 97.5307 78.385 96.6447 79.9043 96.4737C81.6797 96.2737 83.4723 97.088 84.4383 98.534C84.8343 99.1263 85.139 99.8587 85.269 100.531C85.3467 100.931 85.3457 101.795 85.2677 102.186C84.945 103.799 83.901 105.109 82.3063 105.902C81.0183 106.542 79.4893 106.672 78.2407 106.247C76.633 105.7 75.3537 104.128 75.0223 102.291C74.958 101.934 74.9497 101.202 75.0063 100.866C75.1363 100.092 75.463 99.3243 75.9243 98.7097ZM33.0172 99.22C33.1565 98.9777 33.458 98.4603 33.6873 98.0707C33.9167 97.681 34.1097 97.362 34.116 97.362C34.1267 97.362 34.6467 97.6597 35.4587 98.1303C35.6213 98.2247 35.7543 98.3203 35.7547 98.3437C35.755 98.3667 35.5773 98.682 35.3597 99.0443C35.1423 99.4067 34.752 100.069 34.4923 100.515C34.2323 100.962 33.7717 101.743 33.4687 102.251C33.1654 102.759 32.8267 103.333 32.7159 103.525C32.325 104.205 31.0415 106.361 31.0017 106.404C30.9508 106.46 30.8655 106.414 29.2446 105.458C28.576 105.063 27.7215 104.564 27.3457 104.348C26.4848 103.854 26.3092 103.73 25.9333 103.353C24.9824 102.398 24.6181 101.215 24.9247 100.078C25.2573 98.845 26.2313 97.9723 27.5331 97.7413C27.8953 97.677 28.6047 97.691 28.9727 97.7697C29.5927 97.9027 29.8046 98.0003 30.9882 98.6993C32.3311 99.4923 32.6877 99.6927 32.727 99.676C32.7472 99.6677 32.8778 99.4623 33.0172 99.22ZM83.2743 100.536C82.933 99.452 82.2187 98.728 81.1933 98.4263C80.9697 98.3607 80.827 98.3413 80.4963 98.3323C80.2673 98.326 80.001 98.334 79.9043 98.3493C79.4127 98.4287 78.7657 98.6887 78.3047 98.9923C78.053 99.158 77.675 99.5103 77.4847 99.7563C76.909 100.501 76.7473 101.494 77.0477 102.442C77.376 103.479 78.2583 104.329 79.2483 104.563C80.321 104.817 81.6423 104.385 82.5467 103.485C83.3363 102.7 83.6087 101.596 83.2743 100.536ZM29.6963 100.04C29.2206 99.7537 29.0042 99.6447 28.7818 99.579C28.5298 99.5043 28.1324 99.488 27.8934 99.5423C27.1386 99.7133 26.6342 100.453 26.7589 101.205C26.8313 101.642 27.1516 102.124 27.549 102.394C27.6194 102.442 28.2025 102.785 28.8447 103.157C29.487 103.53 30.0576 103.861 30.1127 103.895L30.213 103.956L30.6924 103.151C31.4819 101.826 31.794 101.273 31.7663 101.247C31.7518 101.234 31.3657 101.008 30.9082 100.746C30.4507 100.483 29.9054 100.166 29.6963 100.04ZM70.5803 100.423C70.588 100.416 70.9937 100.27 71.482 100.099C71.9707 99.928 72.38 99.7977 72.3923 99.8093C72.4187 99.8347 72.8883 101.158 73.2817 102.315C73.4363 102.77 73.802 103.815 74.0943 104.635C74.3867 105.456 74.6257 106.139 74.6257 106.152C74.6257 106.175 72.9277 106.763 72.8393 106.771C72.792 106.774 72.6157 106.299 72.0193 104.56C71.818 103.974 71.4087 102.806 71.1097 101.965C70.811 101.125 70.5727 100.431 70.5803 100.423ZM39.5043 101.169C39.4977 101.162 39.5763 100.884 39.679 100.55C39.796 100.169 39.8817 99.9423 39.9077 99.9423C39.9303 99.942 40.823 100.213 41.891 100.545C42.9593 100.877 44.0037 101.198 44.212 101.258C44.4203 101.319 44.602 101.381 44.616 101.396C44.641 101.423 44.4243 102.155 44.2923 102.49C44.1647 102.813 43.9377 103.158 43.713 103.369C43.4787 103.589 43.3153 103.684 42.9693 103.8C42.7513 103.874 42.7167 103.876 41.6577 103.876C40.4313 103.876 40.3433 103.889 40.127 104.104C39.966 104.264 39.9033 104.445 39.9197 104.702C39.936 104.959 40.043 105.127 40.2967 105.297C40.575 105.483 40.841 105.564 41.1777 105.563C41.427 105.563 41.4873 105.552 41.627 105.479C41.8387 105.368 42.04 105.146 42.1593 104.893C42.2123 104.78 42.272 104.688 42.2923 104.689C42.3127 104.69 42.5887 104.768 42.9053 104.862L43.4813 105.033L43.476 105.137C43.4683 105.283 43.211 105.782 43.0267 106.009C42.7313 106.372 42.295 106.653 41.8337 106.778C41.5063 106.867 40.9117 106.854 40.5153 106.749C39.941 106.597 39.4093 106.299 39.0987 105.956C38.7547 105.575 38.6193 105.207 38.6203 104.656C38.622 103.856 38.9447 103.253 39.5067 103.001C39.879 102.834 40.1043 102.803 41.1297 102.775C42.106 102.749 42.256 102.729 42.5237 102.593C42.6723 102.517 42.9087 102.272 42.8683 102.236C42.8533 102.223 42.0933 101.98 41.1787 101.696C40.2643 101.413 39.511 101.176 39.5043 101.169ZM67.958 101.168C68.326 101.073 68.7207 100.968 68.835 100.934C68.9493 100.9 69.059 100.871 69.0787 100.869C69.1133 100.866 69.293 101.501 69.6967 103.053C69.8023 103.459 70.1543 104.763 70.4787 105.952C71.375 109.232 71.5627 109.948 71.5333 109.973C71.4753 110.021 69.7273 110.462 69.7027 110.434C69.6773 110.406 68.666 106.715 68.368 105.564C68.2863 105.248 67.9993 104.181 67.73 103.191C67.4607 102.201 67.2513 101.38 67.2647 101.366C67.278 101.352 67.59 101.263 67.958 101.168ZM47.205 102.766C47.899 102.407 48.476 102.24 49.2877 102.161C49.537 102.137 49.963 102.142 50.2957 102.173C52.0017 102.333 53.4697 103.162 54.3167 104.444C54.8197 105.206 55.0427 105.93 55.071 106.893C55.0887 107.504 55.051 107.879 54.9183 108.403C54.5803 109.738 53.6847 110.842 52.439 111.457C51.7887 111.778 51.2853 111.913 50.484 111.982C49.666 112.053 48.5953 111.904 47.8403 111.614C46.2567 111.006 45.1627 109.753 44.801 108.134C44.7053 107.706 44.6987 106.617 44.7887 106.137C45.0663 104.654 45.9587 103.409 47.205 102.766ZM52.345 105.011C51.872 104.52 51.3217 104.233 50.575 104.086C49.7387 103.922 48.9737 104.005 48.28 104.334C47.7677 104.577 47.4327 104.883 47.1113 105.401C46.6133 106.203 46.5093 107.357 46.8553 108.247C47.1017 108.879 47.6237 109.446 48.2527 109.763C49.09 110.184 50.2067 110.285 51.0627 110.016C51.5657 109.859 51.939 109.626 52.313 109.238C52.67 108.868 52.858 108.554 53.0077 108.08C53.133 107.683 53.169 107.386 53.151 106.895C53.138 106.532 53.12 106.409 53.0473 106.185C52.8857 105.687 52.7033 105.382 52.345 105.011ZM60.3707 105.818C60.616 105.576 60.8417 105.447 61.189 105.353C61.4583 105.28 62.0307 105.274 62.291 105.342C62.9457 105.511 63.43 106.038 63.5707 106.733C63.8043 107.887 63.1073 108.816 61.898 108.962C60.9567 109.075 60.1653 108.53 59.9263 107.603C59.864 107.362 59.8627 106.8 59.9237 106.571C60.0043 106.269 60.1327 106.053 60.3707 105.818ZM73.5913 107.94C73.6933 107.746 73.8987 107.584 74.1413 107.507C74.3357 107.445 74.6387 107.463 74.8027 107.547C75.29 107.797 75.448 108.519 75.1053 108.931C75.0493 108.998 74.9157 109.093 74.793 109.154C74.6113 109.243 74.545 109.258 74.3543 109.258C74.0997 109.256 73.9393 109.19 73.768 109.016C73.5987 108.843 73.524 108.654 73.5117 108.367C73.5017 108.137 73.5097 108.095 73.5913 107.94Z" fill="#271406"/>
</svg>
